<svg id="Capa_1" enable-background="new 0 0 512 512" height="512" viewBox="0 0 512 512" width="512" xmlns="http://www.w3.org/2000/svg"><g><g><path d="m67.748 335.851v86.451h175.619l46.507 41.039 35.953-142.367-35.953-142.13z" fill="#73f"/><path d="m430.555 79.406-140.681 99.438v284.497l55.142 48.659v-89.698h166.984v-342.896z" fill="#5f29cc"/></g><g><g><path d="m0 0v342.897h166.984v79.405l55.142-43.457 33.874-185.968-33.874-192.877z" fill="#80d4ff"/><path d="m222.126 0v378.845l46.523-35.948h175.603v-342.897z" fill="#6daafc"/></g><path d="m144.019 80.63c-31.565 0-57.245 25.68-57.245 57.245 0 31.566 25.68 57.245 57.245 57.245 9.841 0 19.11-2.497 27.207-6.89v3.39c0 18.854-15.338 34.192-34.192 34.192h-13.486v30.039h13.486c35.417 0 64.231-28.814 64.231-64.231v-53.746c0-31.564-25.68-57.244-57.246-57.244z" fill="#fff7cc"/><path d="m295.302 80.63c-31.565 0-57.245 25.68-57.245 57.245 0 31.566 25.68 57.245 57.245 57.245 9.841 0 19.11-2.497 27.207-6.89v3.39c0 18.854-15.338 34.192-34.192 34.192h-13.486v30.039h13.486c35.417 0 64.231-28.814 64.231-64.231v-53.746c0-31.564-25.681-57.244-57.246-57.244z" fill="#ffe5b3"/></g></g></svg>